<svg viewBox="0 0 69 28" fill="currentColor" xmlns="http://www.w3.org/2000/svg" class="LogoWithNav_logo__3ojbp"><path d="M5.91164 28C4.83222 28 4.02795 27.708 3.49882 27.124C2.99086 26.54 2.73688 25.6432 2.73688 24.4335V17.6447C2.73688 16.7896 2.59931 16.1326 2.32417 15.6737C2.07019 15.2149 1.66805 14.9333 1.11776 14.829C0.927274 14.7873 0.832031 14.6831 0.832031 14.5162V13.2648C0.832031 13.0771 0.927274 12.9728 1.11776 12.952C1.66805 12.8477 2.07019 12.5765 2.32417 12.1385C2.59931 11.6797 2.73688 11.0227 2.73688 10.1676V3.5352C2.73688 2.32551 2.99086 1.43911 3.49882 0.875977C4.02795 0.291993 4.83222 0 5.91164 0H7.53076C7.74241 0 7.84824 0.104283 7.84824 0.312849V1.62681C7.84824 1.83538 7.74241 1.93967 7.53076 1.93967H6.70533C5.56241 1.93967 4.99096 2.71136 4.99096 4.25475V10.324C4.99096 11.2626 4.86397 12.0134 4.60999 12.5765C4.35601 13.1397 3.97504 13.5568 3.46708 13.8279C3.42475 13.8488 3.40358 13.8696 3.40358 13.8905C3.40358 13.9114 3.42475 13.9322 3.46708 13.9531C3.97504 14.2451 4.35601 14.6726 4.60999 15.2358C4.86397 15.7989 4.99096 16.5497 4.99096 17.4883V23.714C4.99096 25.2782 5.56241 26.0603 6.70533 26.0603H7.53076C7.74241 26.0603 7.84824 26.1646 7.84824 26.3732V27.6872C7.84824 27.8957 7.74241 28 7.53076 28H5.91164Z" fill="currentColor"/><path d="M15.2276 24.4648C13.7248 24.4648 12.5184 24.0268 11.6083 23.1508C10.7194 22.2749 10.2749 21.1173 10.2749 19.6782V12.9207C10.2749 11.5024 10.73 10.3553 11.6401 9.47933C12.5502 8.5825 13.746 8.13408 15.2276 8.13408C16.2223 8.13408 17.1007 8.33222 17.8626 8.72849C18.6245 9.12477 19.2066 9.65661 19.6087 10.324C20.032 10.9706 20.2437 11.6901 20.2437 12.4827V12.7955C20.2437 13.0041 20.1378 13.1084 19.9262 13.1084L18.3071 13.1709C18.0954 13.1709 17.9896 13.0667 17.9896 12.8581V12.6391C17.9896 11.9508 17.725 11.3564 17.1959 10.8559C16.6879 10.3344 16.0318 10.0737 15.2276 10.0737C14.4233 10.0737 13.7672 10.3553 13.2592 10.9184C12.7724 11.4607 12.529 12.1803 12.529 13.0771V19.5218C12.529 20.4186 12.7724 21.1486 13.2592 21.7117C13.7672 22.254 14.4233 22.5251 15.2276 22.5251C16.0318 22.5251 16.6879 22.2749 17.1959 21.7743C17.725 21.2529 17.9896 20.648 17.9896 19.9598V19.7408C17.9896 19.5322 18.0954 19.4279 18.3071 19.4279L19.9262 19.4592C20.1378 19.4592 20.2437 19.5635 20.2437 19.7721V20.1162C20.2437 21.3676 19.778 22.4104 18.8468 23.2447C17.9367 24.0581 16.7303 24.4648 15.2276 24.4648Z" fill="currentColor"/><path d="M28.0327 24.4648C26.5088 24.4648 25.2919 24.0268 24.3818 23.1508C23.4928 22.2749 23.0484 21.1173 23.0484 19.6782V12.952C23.0484 11.5337 23.5034 10.3762 24.4135 9.47933C25.3236 8.5825 26.53 8.13408 28.0327 8.13408C29.5566 8.13408 30.7736 8.5825 31.6837 9.47933C32.5938 10.3762 33.0488 11.5337 33.0488 12.952V19.6782C33.0488 21.1173 32.5938 22.2749 31.6837 23.1508C30.7736 24.0268 29.5566 24.4648 28.0327 24.4648ZM28.0327 22.4939C28.837 22.4939 29.4931 22.2227 30.0011 21.6804C30.5302 21.1382 30.7948 20.4186 30.7948 19.5218V13.0771C30.7948 12.1803 30.5302 11.4607 30.0011 10.9184C29.4931 10.3553 28.837 10.0737 28.0327 10.0737C27.2285 10.0737 26.5723 10.3553 26.0644 10.9184C25.5564 11.4607 25.3024 12.1803 25.3024 13.0771V19.5218C25.3024 20.4186 25.5564 21.1382 26.0644 21.6804C26.5723 22.2227 27.2285 22.4939 28.0327 22.4939Z" fill="currentColor"/><path d="M43.876 2.62793C43.876 2.41937 43.9818 2.31508 44.1935 2.31508H45.8126C46.0242 2.31508 46.1301 2.41937 46.1301 2.62793V23.9017C46.1301 24.1102 46.0242 24.2145 45.8126 24.2145H44.1935C43.9818 24.2145 43.876 24.1102 43.876 23.9017V23.2134C43.876 23.1717 43.8548 23.1404 43.8125 23.1196C43.7913 23.0987 43.7596 23.1091 43.7173 23.1508C42.913 24.0268 41.8971 24.4648 40.6695 24.4648C39.3149 24.4648 38.2355 24.0268 37.4312 23.1508C36.627 22.254 36.2248 21.0965 36.2248 19.6782V12.9207C36.2248 11.4607 36.627 10.3032 37.4312 9.44804C38.2355 8.57207 39.3149 8.13408 40.6695 8.13408C41.9182 8.13408 42.9341 8.5825 43.7173 9.47933C43.7596 9.52104 43.7913 9.53147 43.8125 9.51061C43.8548 9.48976 43.876 9.45847 43.876 9.41676V2.62793ZM41.2092 22.5251C41.9923 22.5251 42.6273 22.254 43.114 21.7117C43.622 21.1486 43.876 20.429 43.876 19.5531V13.0771C43.876 12.1803 43.622 11.4607 43.114 10.9184C42.6273 10.3553 41.9923 10.0737 41.2092 10.0737C40.4049 10.0737 39.7382 10.3553 39.2091 10.9184C38.7011 11.4607 38.4472 12.1803 38.4472 13.0771V19.5531C38.4472 20.429 38.7011 21.1486 39.2091 21.7117C39.7382 22.254 40.4049 22.5251 41.2092 22.5251Z" fill="currentColor"/><path d="M59.5863 16.8313C59.5863 17.0399 59.4805 17.1441 59.2688 17.1441H52.0304C51.9457 17.1441 51.9034 17.1858 51.9034 17.2693V19.5531C51.9034 20.429 52.1468 21.1486 52.6336 21.7117C53.1416 22.254 53.7977 22.5251 54.6019 22.5251C55.2792 22.5251 55.8507 22.327 56.3163 21.9307C56.8031 21.5136 57.1206 20.9817 57.2687 20.3352C57.3322 20.1475 57.4486 20.0536 57.618 20.0536L59.2053 20.1162C59.29 20.1162 59.3641 20.1475 59.4276 20.2101C59.4911 20.2726 59.5122 20.3561 59.4911 20.4603C59.3217 21.6909 58.8032 22.6711 57.9354 23.4011C57.0888 24.1102 55.9777 24.4648 54.6019 24.4648C53.0992 24.4648 51.8928 24.0268 50.9827 23.1508C50.0938 22.2749 49.6493 21.1173 49.6493 19.6782V12.9207C49.6493 11.5024 50.0938 10.3553 50.9827 9.47933C51.8928 8.5825 53.0992 8.13408 54.6019 8.13408C56.1258 8.13408 57.3322 8.5825 58.2212 9.47933C59.1313 10.3553 59.5863 11.5024 59.5863 12.9207V16.8313ZM54.6019 10.0737C53.7977 10.0737 53.1416 10.3553 52.6336 10.9184C52.1468 11.4607 51.9034 12.1803 51.9034 13.0771V15.1732C51.9034 15.2566 51.9457 15.2983 52.0304 15.2983H57.237C57.3216 15.2983 57.364 15.2566 57.364 15.1732V13.0771C57.364 12.1803 57.11 11.4607 56.602 10.9184C56.0941 10.3553 55.4274 10.0737 54.6019 10.0737Z" fill="currentColor"/><path d="M62.1333 28C61.9216 28 61.8158 27.8957 61.8158 27.6872V26.3732C61.8158 26.1646 61.9216 26.0603 62.1333 26.0603H62.9587C64.1017 26.0603 64.6731 25.2782 64.6731 23.714V17.4883C64.6731 16.5497 64.8001 15.7989 65.0541 15.2358C65.3081 14.6726 65.689 14.2451 66.197 13.9531C66.2393 13.9322 66.2605 13.9114 66.2605 13.8905C66.2605 13.8696 66.2393 13.8488 66.197 13.8279C65.689 13.5568 65.3081 13.1397 65.0541 12.5765C64.8001 12.0134 64.6731 11.2626 64.6731 10.324V4.25475C64.6731 2.71136 64.1017 1.93967 62.9587 1.93967H62.1333C61.9216 1.93967 61.8158 1.83538 61.8158 1.62681V0.312849C61.8158 0.104283 61.9216 0 62.1333 0H63.7524C64.8318 0 65.6255 0.291993 66.1335 0.875977C66.6626 1.43911 66.9272 2.32551 66.9272 3.5352V10.1676C66.9272 11.0227 67.0542 11.6797 67.3082 12.1385C67.5833 12.5765 67.996 12.8477 68.5463 12.952C68.7368 12.9728 68.832 13.0771 68.832 13.2648V14.5162C68.832 14.6831 68.7368 14.7873 68.5463 14.829C67.996 14.9333 67.5833 15.2149 67.3082 15.6737C67.0542 16.1326 66.9272 16.7896 66.9272 17.6447V24.4335C66.9272 25.6432 66.6626 26.54 66.1335 27.124C65.6255 27.708 64.8318 28 63.7524 28H62.1333Z" fill="currentColor"/></svg>